<?xml version="1.0" standalone="no"?>
<!DOCTYPE svg PUBLIC "-//W3C//DTD SVG 20010904//EN"
 "http://www.w3.org/TR/2001/REC-SVG-20010904/DTD/svg10.dtd">
<svg version="1.0" xmlns="http://www.w3.org/2000/svg"
 width="197.000000pt" height="197.000000pt" viewBox="0 0 197.000000 197.000000"
 preserveAspectRatio="xMidYMid meet">
<metadata>
Created by potrace 1.14, written by Peter Selinger 2001-2017
</metadata>
<g transform="translate(0.000000,197.000000) scale(0.100000,-0.100000)"
fill="#000000" stroke="none">
<path d="M298 1129 c-14 -8 -18 -24 -18 -79 0 -87 5 -90 139 -90 61 0 101 -4
101 -10 0 -6 -54 -10 -141 -10 l-140 0 3 -37 3 -38 169 -3 c116 -2 173 1 182
9 18 15 19 144 2 156 -7 4 -64 6 -125 4 -98 -2 -113 -1 -113 13 0 14 17 16
125 16 l125 0 0 40 0 40 -147 0 c-82 0 -156 -5 -165 -11z"/>
<path d="M658 1129 c-16 -9 -18 -27 -18 -139 l0 -130 45 0 45 0 0 83 c0 79 1
81 18 61 9 -12 48 -49 86 -83 53 -48 75 -61 100 -61 52 0 56 11 56 152 l0 128
-45 0 -44 0 -3 -77 -3 -78 -83 78 c-85 79 -112 91 -154 66z"/>
<path d="M1032 1124 c-20 -14 -22 -23 -22 -120 0 -58 5 -114 10 -125 10 -18
23 -19 175 -19 180 0 175 -2 159 58 -6 21 -10 22 -130 22 l-124 0 0 60 0 60
79 0 c44 0 83 -4 86 -10 7 -11 -33 -15 -102 -11 l-43 3 0 -41 0 -41 100 0
c123 0 140 11 140 90 0 83 -14 90 -173 90 -104 0 -137 -3 -155 -16z"/>
<path d="M1377 1133 c-4 -3 -7 -21 -7 -40 l0 -33 120 0 c105 0 120 -2 120 -17
0 -14 -13 -15 -120 -10 l-120 6 0 -89 0 -90 45 0 45 0 0 50 0 50 38 0 c36 -1
40 -5 112 -105 l75 -105 48 0 c26 0 47 3 47 8 -1 4 -32 50 -70 102 -61 83 -68
95 -52 103 31 17 42 40 42 89 0 81 -14 88 -178 88 -76 0 -142 -3 -145 -7z"/>
</g>
</svg>
